<svg width="195" height="19" viewBox="0 0 195 19" fill="none" xmlns="http://www.w3.org/2000/svg">
<path d="M11.8555 7.80469V10.7578H3.01953V7.80469H11.8555ZM4.22656 0.9375V18H0.40625V0.9375H4.22656ZM14.4922 0.9375V18H10.6836V0.9375H14.4922ZM24.6289 4.18359L20.2227 18H16.1445L22.4609 0.9375H25.0391L24.6289 4.18359ZM28.2852 18L23.8672 4.18359L23.4102 0.9375H26.0234L32.3633 18H28.2852ZM28.0977 11.6484V14.6016H19.2031V11.6484H28.0977ZM40.5078 12.0703H36.2188V9.10547H40.5078C41.1406 9.10547 41.6484 9 42.0312 8.78906C42.4219 8.57812 42.707 8.28906 42.8867 7.92188C43.0742 7.54688 43.168 7.125 43.168 6.65625C43.168 6.17188 43.0742 5.72266 42.8867 5.30859C42.707 4.88672 42.4219 4.54688 42.0312 4.28906C41.6484 4.03125 41.1406 3.90234 40.5078 3.90234H37.6016V18H33.7812V0.9375H40.5078C41.8672 0.9375 43.0312 1.18359 44 1.67578C44.9766 2.16797 45.7227 2.84375 46.2383 3.70312C46.7617 4.55469 47.0234 5.53125 47.0234 6.63281C47.0234 7.73438 46.7617 8.69141 46.2383 9.50391C45.7227 10.3164 44.9766 10.9492 44 11.4023C43.0312 11.8477 41.8672 12.0703 40.5078 12.0703ZM56.0703 12.0703H51.7812V9.10547H56.0703C56.7031 9.10547 57.2109 9 57.5938 8.78906C57.9844 8.57812 58.2695 8.28906 58.4492 7.92188C58.6367 7.54688 58.7305 7.125 58.7305 6.65625C58.7305 6.17188 58.6367 5.72266 58.4492 5.30859C58.2695 4.88672 57.9844 4.54688 57.5938 4.28906C57.2109 4.03125 56.7031 3.90234 56.0703 3.90234H53.1641V18H49.3438V0.9375H56.0703C57.4297 0.9375 58.5938 1.18359 59.5625 1.67578C60.5391 2.16797 61.2852 2.84375 61.8008 3.70312C62.3242 4.55469 62.5859 5.53125 62.5859 6.63281C62.5859 7.73438 62.3242 8.69141 61.8008 9.50391C61.2852 10.3164 60.5391 10.9492 59.5625 11.4023C58.5938 11.8477 57.4297 12.0703 56.0703 12.0703ZM76.5078 15.0469V18H67.4258V15.0469H76.5078ZM68.7266 0.9375V18H64.9062V0.9375H68.7266ZM75.3359 7.80469V10.6641H67.4258V7.80469H75.3359ZM76.5195 0.9375V3.90234H67.4258V0.9375H76.5195ZM92.457 0.9375V18H88.6484L82.2031 6.97266V18H78.3828V0.9375H82.2031L88.6602 11.9648V0.9375H92.457ZM99.3477 0.9375V18H95.5391V0.9375H99.3477ZM116.504 0.9375V18H112.695L106.25 6.97266V18H102.43V0.9375H106.25L112.707 11.9648V0.9375H116.504ZM133.074 8.98828V15.8672C132.793 16.1875 132.363 16.5312 131.785 16.8984C131.215 17.2656 130.484 17.582 129.594 17.8477C128.703 18.1055 127.641 18.2344 126.406 18.2344C125.289 18.2344 124.273 18.0547 123.359 17.6953C122.445 17.3281 121.66 16.793 121.004 16.0898C120.348 15.3789 119.84 14.5117 119.48 13.4883C119.129 12.4648 118.953 11.293 118.953 9.97266V8.96484C118.953 7.64453 119.129 6.47266 119.48 5.44922C119.832 4.42578 120.328 3.5625 120.969 2.85938C121.609 2.14844 122.371 1.60937 123.254 1.24219C124.137 0.875 125.113 0.691406 126.184 0.691406C127.707 0.691406 128.953 0.9375 129.922 1.42969C130.891 1.91406 131.625 2.58594 132.125 3.44531C132.633 4.30469 132.945 5.29297 133.062 6.41016H129.383C129.305 5.83984 129.148 5.34766 128.914 4.93359C128.688 4.51953 128.363 4.20312 127.941 3.98438C127.52 3.75781 126.973 3.64453 126.301 3.64453C125.762 3.64453 125.273 3.75781 124.836 3.98438C124.406 4.20312 124.043 4.53516 123.746 4.98047C123.449 5.42578 123.223 5.98047 123.066 6.64453C122.91 7.30078 122.832 8.06641 122.832 8.94141V9.97266C122.832 10.8477 122.91 11.6172 123.066 12.2812C123.23 12.9453 123.469 13.5 123.781 13.9453C124.094 14.3828 124.488 14.7148 124.965 14.9414C125.449 15.168 126.012 15.2812 126.652 15.2812C127.152 15.2812 127.574 15.2422 127.918 15.1641C128.262 15.0781 128.543 14.9727 128.762 14.8477C128.98 14.7148 129.145 14.5938 129.254 14.4844V11.6484H126.219V8.98828H133.074ZM155.738 0.9375V18H151.93L145.484 6.97266V18H141.664V0.9375H145.484L151.941 11.9648V0.9375H155.738ZM172.789 9.09375V9.85547C172.789 11.1523 172.609 12.3164 172.25 13.3477C171.898 14.3789 171.395 15.2578 170.738 15.9844C170.09 16.7109 169.316 17.2695 168.418 17.6602C167.527 18.043 166.539 18.2344 165.453 18.2344C164.367 18.2344 163.375 18.043 162.477 17.6602C161.578 17.2695 160.797 16.7109 160.133 15.9844C159.477 15.2578 158.969 14.3789 158.609 13.3477C158.25 12.3164 158.07 11.1523 158.07 9.85547V9.09375C158.07 7.79688 158.25 6.63281 158.609 5.60156C158.969 4.5625 159.473 3.67969 160.121 2.95312C160.777 2.22656 161.555 1.67188 162.453 1.28906C163.352 0.898438 164.344 0.703125 165.43 0.703125C166.516 0.703125 167.508 0.898438 168.406 1.28906C169.305 1.67188 170.078 2.22656 170.727 2.95312C171.383 3.67969 171.891 4.5625 172.25 5.60156C172.609 6.63281 172.789 7.79688 172.789 9.09375ZM168.934 9.85547V9.07031C168.934 8.20312 168.855 7.4375 168.699 6.77344C168.543 6.10156 168.316 5.53906 168.02 5.08594C167.723 4.63281 167.355 4.29297 166.918 4.06641C166.48 3.83203 165.984 3.71484 165.43 3.71484C164.852 3.71484 164.348 3.83203 163.918 4.06641C163.488 4.29297 163.125 4.63281 162.828 5.08594C162.539 5.53906 162.316 6.10156 162.16 6.77344C162.012 7.4375 161.938 8.20312 161.938 9.07031V9.85547C161.938 10.7148 162.012 11.4805 162.16 12.1523C162.316 12.8164 162.543 13.3789 162.84 13.8398C163.137 14.3008 163.5 14.6484 163.93 14.8828C164.367 15.1172 164.875 15.2344 165.453 15.2344C166.008 15.2344 166.5 15.1172 166.93 14.8828C167.367 14.6484 167.734 14.3008 168.031 13.8398C168.328 13.3789 168.551 12.8164 168.699 12.1523C168.855 11.4805 168.934 10.7148 168.934 9.85547ZM179.164 15.8672L182.562 0.9375H184.52L185.293 2.78906L181.672 18H179.527L179.164 15.8672ZM177.84 0.9375L180.688 15.9375L180.195 18H177.758L174.055 0.9375H177.84ZM187.719 15.8555L190.531 0.9375H194.305L190.602 18H188.188L187.719 15.8555ZM185.797 0.9375L189.242 15.9492L188.844 18H186.711L183.031 2.77734L183.84 0.9375H185.797Z" fill="black"/>
</svg>
