<svg width="118" height="19" viewBox="0 0 118 19" fill="none" xmlns="http://www.w3.org/2000/svg">
<path d="M9.15234 0.9375V18H5.64844V0.9375H9.15234ZM14.4023 0.9375V3.69141H0.480469V0.9375H14.4023ZM16.4062 0.9375H22.7695C24.0742 0.9375 25.1953 1.13281 26.1328 1.52344C27.0781 1.91406 27.8047 2.49219 28.3125 3.25781C28.8203 4.02344 29.0742 4.96484 29.0742 6.08203C29.0742 6.99609 28.918 7.78125 28.6055 8.4375C28.3008 9.08594 27.8672 9.62891 27.3047 10.0664C26.75 10.4961 26.0977 10.8398 25.3477 11.0977L24.2344 11.6836H18.7031L18.6797 8.94141H22.793C23.4102 8.94141 23.9219 8.83203 24.3281 8.61328C24.7344 8.39453 25.0391 8.08984 25.2422 7.69922C25.4531 7.30859 25.5586 6.85547 25.5586 6.33984C25.5586 5.79297 25.457 5.32031 25.2539 4.92188C25.0508 4.52344 24.7422 4.21875 24.3281 4.00781C23.9141 3.79688 23.3945 3.69141 22.7695 3.69141H19.9219V18H16.4062V0.9375ZM25.9453 18L22.0547 10.3945L25.7695 10.3711L29.707 17.8359V18H25.9453ZM38.7188 3.85547L34.0781 18H30.3398L36.6797 0.9375H39.0586L38.7188 3.85547ZM42.5742 18L37.9219 3.85547L37.5469 0.9375H39.9492L46.3242 18H42.5742ZM42.3633 11.6484V14.4023H33.3516V11.6484H42.3633ZM61.793 0.9375V18H58.2773L51.4219 6.5625V18H47.9062V0.9375H51.4219L58.2891 12.3867V0.9375H61.793ZM70.0898 18H66.375L66.3984 15.2578H70.0898C71.0117 15.2578 71.7891 15.0508 72.4219 14.6367C73.0547 14.2148 73.5312 13.6016 73.8516 12.7969C74.1797 11.9922 74.3438 11.0195 74.3438 9.87891V9.04688C74.3438 8.17188 74.25 7.40234 74.0625 6.73828C73.8828 6.07422 73.6133 5.51562 73.2539 5.0625C72.8945 4.60938 72.4531 4.26953 71.9297 4.04297C71.4062 3.80859 70.8047 3.69141 70.125 3.69141H66.3047V0.9375H70.125C71.2656 0.9375 72.3086 1.13281 73.2539 1.52344C74.207 1.90625 75.0312 2.45703 75.7266 3.17578C76.4219 3.89453 76.957 4.75391 77.332 5.75391C77.7148 6.74609 77.9062 7.85156 77.9062 9.07031V9.87891C77.9062 11.0898 77.7148 12.1953 77.332 13.1953C76.957 14.1953 76.4219 15.0547 75.7266 15.7734C75.0391 16.4844 74.2148 17.0352 73.2539 17.4258C72.3008 17.8086 71.2461 18 70.0898 18ZM68.3672 0.9375V18H64.8516V0.9375H68.3672ZM84.1992 0.9375V18H80.6953V0.9375H84.1992ZM101.379 0.9375V18H97.8633L91.0078 6.5625V18H87.4922V0.9375H91.0078L97.875 12.3867V0.9375H101.379ZM117.961 9.08203V15.8438C117.695 16.1641 117.285 16.5117 116.73 16.8867C116.176 17.2539 115.461 17.5703 114.586 17.8359C113.711 18.1016 112.652 18.2344 111.41 18.2344C110.309 18.2344 109.305 18.0547 108.398 17.6953C107.492 17.3281 106.711 16.793 106.055 16.0898C105.406 15.3867 104.906 14.5273 104.555 13.5117C104.203 12.4883 104.027 11.3203 104.027 10.0078V8.94141C104.027 7.62891 104.195 6.46094 104.531 5.4375C104.875 4.41406 105.363 3.55078 105.996 2.84766C106.629 2.14453 107.383 1.60937 108.258 1.24219C109.133 0.875 110.105 0.691406 111.176 0.691406C112.66 0.691406 113.879 0.933594 114.832 1.41797C115.785 1.89453 116.512 2.55859 117.012 3.41016C117.52 4.25391 117.832 5.22266 117.949 6.31641H114.539C114.453 5.73828 114.289 5.23438 114.047 4.80469C113.805 4.375 113.457 4.03906 113.004 3.79688C112.559 3.55469 111.98 3.43359 111.27 3.43359C110.684 3.43359 110.16 3.55469 109.699 3.79688C109.246 4.03125 108.863 4.37891 108.551 4.83984C108.238 5.30078 108 5.87109 107.836 6.55078C107.672 7.23047 107.59 8.01953 107.59 8.91797V10.0078C107.59 10.8984 107.676 11.6875 107.848 12.375C108.02 13.0547 108.273 13.6289 108.609 14.0977C108.953 14.5586 109.375 14.9062 109.875 15.1406C110.375 15.375 110.957 15.4922 111.621 15.4922C112.176 15.4922 112.637 15.4453 113.004 15.3516C113.379 15.2578 113.68 15.1445 113.906 15.0117C114.141 14.8711 114.32 14.7383 114.445 14.6133V11.5898H111.234V9.08203H117.961Z" fill="black"/>
</svg>
